<svg width="18" height="18" viewBox="0 0 18 18" fill="none" xmlns="http://www.w3.org/2000/svg">
<path d="M11.4994 0.666992H6.49935C2.33268 0.666992 0.666016 2.33366 0.666016 6.50033V11.5003C0.666016 15.667 2.33268 17.3337 6.49935 17.3337H11.4994C15.666 17.3337 17.3327 15.667 17.3327 11.5003V6.50033C17.3327 2.33366 15.666 0.666992 11.4994 0.666992ZM12.916 7.39318L8.49935 11.8099C8.33268 11.9765 8.1184 12.0598 7.89221 12.0598C7.66602 12.0598 7.45173 11.9765 7.28506 11.8099L5.07078 9.59556C4.73744 9.26223 4.73744 8.72652 5.07078 8.39318C5.40411 8.05985 5.93983 8.05985 6.27316 8.39318L7.8803 10.0003L11.7017 6.1789C12.0351 5.84556 12.5708 5.84556 12.9041 6.1789C13.2374 6.51223 13.2493 7.05985 12.916 7.39318Z" fill="#323232"/>
</svg>
