<svg width="38" height="38" viewBox="0 0 38 38" fill="none" xmlns="http://www.w3.org/2000/svg">
<path d="M15.1518 29.7983C14.851 29.7983 14.5501 29.6875 14.3126 29.45L4.7018 19.8392C4.24263 19.38 4.24263 18.62 4.7018 18.1608L14.3126 8.55C14.7718 8.09084 15.5318 8.09084 15.991 8.55C16.4501 9.00917 16.4501 9.76917 15.991 10.2283L7.2193 19L15.991 27.7717C16.4501 28.2308 16.4501 28.9908 15.991 29.45C15.7693 29.6875 15.4526 29.7983 15.1518 29.7983Z" fill="white"/>
<path d="M32.458 20.1875H5.81055C5.16138 20.1875 4.62305 19.6492 4.62305 19C4.62305 18.3508 5.16138 17.8125 5.81055 17.8125H32.458C33.1072 17.8125 33.6455 18.3508 33.6455 19C33.6455 19.6492 33.1072 20.1875 32.458 20.1875Z" fill="white"/>
</svg>
