<svg width="28" height="28" viewBox="0 0 28 28" fill="none" xmlns="http://www.w3.org/2000/svg">
<path d="M14.0007 2.33331C7.57232 2.33331 2.33398 7.57165 2.33398 14C2.33398 20.4283 7.57232 25.6666 14.0007 25.6666C20.429 25.6666 25.6673 20.4283 25.6673 14C25.6673 7.57165 20.429 2.33331 14.0007 2.33331ZM19.0757 18.165C18.9123 18.445 18.6207 18.5966 18.3173 18.5966C18.1657 18.5966 18.014 18.5616 17.874 18.4683L14.2573 16.31C13.359 15.7733 12.694 14.595 12.694 13.5566V8.77331C12.694 8.29498 13.0907 7.89831 13.569 7.89831C14.0473 7.89831 14.444 8.29498 14.444 8.77331V13.5566C14.444 13.9766 14.794 14.595 15.1557 14.805L18.7723 16.9633C19.1923 17.2083 19.3323 17.745 19.0757 18.165Z" fill="#A1F8CF"/>
</svg>
