<svg width="38" height="38" viewBox="0 0 38 38" fill="none" xmlns="http://www.w3.org/2000/svg">
<path d="M34.8333 15.4376C34.1842 15.4376 33.6458 14.8992 33.6458 14.2501V11.0834C33.6458 6.99841 31.0017 4.35425 26.9167 4.35425H23.75C23.1008 4.35425 22.5625 3.81591 22.5625 3.16675C22.5625 2.51758 23.1008 1.97925 23.75 1.97925H26.9167C32.3633 1.97925 36.0208 5.63675 36.0208 11.0834V14.2501C36.0208 14.8992 35.4825 15.4376 34.8333 15.4376Z" fill="white"/>
<path d="M3.16602 15.4376C2.51685 15.4376 1.97852 14.8992 1.97852 14.2501V11.0834C1.97852 5.63675 5.63602 1.97925 11.0827 1.97925H14.2493C14.8985 1.97925 15.4368 2.51758 15.4368 3.16675C15.4368 3.81591 14.8985 4.35425 14.2493 4.35425H11.0827C6.99768 4.35425 4.35352 6.99841 4.35352 11.0834V14.2501C4.35352 14.8992 3.81518 15.4376 3.16602 15.4376Z" fill="white"/>
<path d="M26.9167 36.0208H23.75C23.1008 36.0208 22.5625 35.4825 22.5625 34.8333C22.5625 34.1842 23.1008 33.6458 23.75 33.6458H26.9167C31.0017 33.6458 33.6458 31.0017 33.6458 26.9167V23.75C33.6458 23.1008 34.1842 22.5625 34.8333 22.5625C35.4825 22.5625 36.0208 23.1008 36.0208 23.75V26.9167C36.0208 32.3633 32.3633 36.0208 26.9167 36.0208Z" fill="white"/>
<path d="M14.2493 36.0208H11.0827C5.63602 36.0208 1.97852 32.3633 1.97852 26.9167V23.75C1.97852 23.1008 2.51685 22.5625 3.16602 22.5625C3.81518 22.5625 4.35352 23.1008 4.35352 23.75V26.9167C4.35352 31.0017 6.99768 33.6458 11.0827 33.6458H14.2493C14.8985 33.6458 15.4368 34.1842 15.4368 34.8333C15.4368 35.4825 14.8985 36.0208 14.2493 36.0208Z" fill="white"/>
<path d="M22.2476 19.8128C22.7633 19.8128 23.1814 20.2346 23.1814 20.7504C23.1814 23.3473 22.5613 25.8552 21.3931 28.1062C21.2766 28.3227 21.0054 28.4016 20.7909 28.2816L20.3574 28.0389C19.9109 27.789 19.7538 27.2262 19.9723 26.7635C20.7908 25.03 21.2493 23.1373 21.3072 21.1779L21.3137 20.7504C21.3137 20.2346 21.7318 19.8128 22.2476 19.8128ZM17.5785 17.9341C17.5785 17.4183 17.9966 17.0003 18.5123 17.0003C19.028 17.0003 19.4461 17.4183 19.4461 17.9341V20.7504L19.4414 21.1057C19.3708 23.6724 18.491 26.1504 16.9285 28.1831C16.8099 28.3326 16.5919 28.356 16.4443 28.2351L15.9829 27.8574C15.5864 27.5328 15.5315 26.9505 15.8182 26.5259C16.8998 24.9236 17.5116 23.0408 17.5729 21.0935L17.5785 20.7504V17.9341ZM18.5123 13.2501C19.7506 13.2501 20.9382 13.744 21.8138 14.6231C22.4684 15.2803 22.9085 16.1124 23.0891 17.0101C23.1907 17.5157 22.7633 17.9378 22.2476 17.9378C21.7318 17.9378 21.3283 17.5086 21.1607 17.0209C21.0234 16.6211 20.7967 16.2537 20.4932 15.949C19.9678 15.4215 19.2553 15.1252 18.5123 15.1252C17.7693 15.1252 17.0567 15.4215 16.5314 15.949C16.006 16.4764 15.7108 17.1918 15.7108 17.9378V20.7504C15.7108 22.8458 14.9451 24.823 13.5901 26.354C13.4815 26.4724 13.2968 26.4783 13.1807 26.3673L12.7083 25.9152C12.3389 25.5618 12.3316 24.9794 12.6282 24.5631C13.3606 23.5353 13.7844 22.3102 13.8376 21.0344L13.8432 20.7504V17.9378C13.8432 16.6945 14.3351 15.5022 15.2107 14.6231C16.0864 13.744 17.274 13.2501 18.5123 13.2501ZM18.5123 9.50001C20.7413 9.50001 22.879 10.389 24.4551 11.9714C26.0312 13.5538 26.9167 15.6999 26.9167 17.9378V20.7504C26.9167 22.3423 26.728 23.9099 26.3592 25.4286C26.2878 25.7064 26.0028 25.872 25.7261 25.7963L25.3204 25.6853C24.8268 25.5502 24.5383 25.0414 24.6464 24.5412C24.8764 23.4769 25.0088 22.3879 25.0416 21.2829L25.049 20.7504V17.9378C25.049 16.7198 24.7114 15.5259 24.074 14.4896C23.4366 13.4532 22.5245 12.6155 21.4398 12.07C20.3551 11.5245 19.1406 11.2929 17.9322 11.401C16.9995 11.4844 16.0988 11.7677 15.2896 12.2281C14.8769 12.4628 14.3485 12.4316 14.0136 12.0951C13.6147 11.6943 13.6495 11.0316 14.1313 10.7356C15.4441 9.92894 16.9596 9.4977 18.5123 9.50001ZM11.3359 13.5437C11.6309 13.0589 12.2967 13.0239 12.6974 13.4258C13.0304 13.76 13.0609 14.2845 12.8282 14.6949C12.3074 15.6129 12.0142 16.6478 11.9793 17.7118L11.9756 17.9378L11.9793 19.8128C11.9793 20.8629 11.7328 21.8782 11.2677 22.7914C11.188 22.9403 11.001 22.9938 10.8545 22.9098L10.2981 22.5908C9.85691 22.3379 9.71366 21.7769 9.87374 21.2942C10.0021 20.9071 10.0798 20.502 10.1032 20.0866L10.1117 19.8128V17.9378C10.1071 16.3808 10.5345 14.8607 11.3359 13.5437Z" fill="white"/>
</svg>
