<svg width="28" height="28" viewBox="0 0 28 28" fill="none" xmlns="http://www.w3.org/2000/svg">
<path d="M23.3806 7.9567L16.6606 3.25503C14.8289 1.9717 12.0173 2.0417 10.2556 3.4067L4.4106 7.96836C3.24393 8.87836 2.32227 10.745 2.32227 12.215V20.265C2.32227 23.24 4.73727 25.6667 7.71227 25.6667H20.2889C23.2639 25.6667 25.6789 23.2517 25.6789 20.2767V12.3667C25.6789 10.7917 24.6639 8.85503 23.3806 7.9567ZM14.8756 21C14.8756 21.4784 14.4789 21.875 14.0006 21.875C13.5223 21.875 13.1256 21.4784 13.1256 21V17.5C13.1256 17.0217 13.5223 16.625 14.0006 16.625C14.4789 16.625 14.8756 17.0217 14.8756 17.5V21Z" fill="#15BE77"/>
</svg>
