<svg width="16" height="16" viewBox="0 0 16 16" fill="none" xmlns="http://www.w3.org/2000/svg">
<path d="M10.0007 1.33337H6.00065C2.66732 1.33337 1.33398 2.66671 1.33398 6.00004V10C1.33398 13.3334 2.66732 14.6667 6.00065 14.6667H10.0007C13.334 14.6667 14.6673 13.3334 14.6673 10V6.00004C14.6673 2.66671 13.334 1.33337 10.0007 1.33337ZM11.134 6.71433L7.60065 10.2477C7.46732 10.381 7.29589 10.4477 7.11494 10.4477C6.93398 10.4477 6.76256 10.381 6.62922 10.2477L4.85779 8.47623C4.59113 8.20956 4.59113 7.78099 4.85779 7.51433C5.12446 7.24766 5.55303 7.24766 5.8197 7.51433L7.10541 8.80004L10.1626 5.7429C10.4292 5.47623 10.8578 5.47623 11.1245 5.7429C11.3911 6.00956 11.4007 6.44766 11.134 6.71433Z" fill="white"/>
</svg>
