<svg width="20" height="20" viewBox="0 0 20 20" fill="none" xmlns="http://www.w3.org/2000/svg">
<path d="M17.4917 8.09169C17.2083 7.97502 16.8333 7.91669 16.3667 7.91669H11.9667C10.5167 7.91669 10 8.43335 10 9.90002V16.35C10 16.8334 10.0583 17.2084 10.1833 17.5C10.4417 18.1 10.9917 18.3334 11.9667 18.3334H16.3667C17.8167 18.3334 18.3333 17.8084 18.3333 16.35V9.90002C18.3333 8.90835 18.1 8.35002 17.4917 8.09169ZM15 16.4584H13.3333C13.3167 16.4584 13.2917 16.4584 13.275 16.45C13.15 16.4417 13.0417 16.4 12.95 16.3167C12.8 16.2084 12.7083 16.0334 12.7083 15.8334C12.7083 15.4917 12.9917 15.2084 13.3333 15.2084H15C15.3417 15.2084 15.625 15.4917 15.625 15.8334C15.625 16.175 15.3417 16.4584 15 16.4584Z" fill="#9FEDC2"/>
<path d="M17.4924 5.15835V5.83335C17.4924 6.29169 17.1174 6.66669 16.6591 6.66669H11.9674C9.83411 6.66669 8.75078 7.75835 8.75078 9.90002V17.5C8.75078 17.9584 8.37578 18.3334 7.91745 18.3334H6.29245C5.95911 18.3334 5.69245 18.0667 5.69245 17.7417C5.69245 17.4084 5.95911 17.15 6.29245 17.15H7.91745V13.9584H5.00078C3.15078 13.8667 1.67578 12.3417 1.67578 10.4667V5.15835C1.67578 3.23335 3.24245 1.66669 5.17578 1.66669H14.0008C15.9258 1.66669 17.4924 3.23335 17.4924 5.15835Z" fill="#9FEDC2"/>
</svg>
