<svg width="11" height="11" viewBox="0 0 11 11" fill="none" xmlns="http://www.w3.org/2000/svg">
<path d="M8.59375 3.66663V4.62913C8.39208 4.60163 8.16292 4.58788 7.90625 4.58329V3.66663C7.90625 2.22288 7.49833 1.26038 5.5 1.26038C3.50167 1.26038 3.09375 2.22288 3.09375 3.66663V4.58329C2.83708 4.58788 2.60792 4.60163 2.40625 4.62913V3.66663C2.40625 2.33746 2.72708 0.572876 5.5 0.572876C8.27292 0.572876 8.59375 2.33746 8.59375 3.66663Z" fill="#323232"/>
<path d="M8.5931 4.62921C8.39143 4.60171 8.16227 4.58796 7.9056 4.58337H3.0931C2.83643 4.58796 2.60727 4.60171 2.4056 4.62921C1.23685 4.77129 0.916016 5.34421 0.916016 6.87504V7.79171C0.916016 9.62504 1.37435 10.0834 3.20768 10.0834H7.79102C9.62435 10.0834 10.0827 9.62504 10.0827 7.79171V6.87504C10.0827 5.34421 9.76185 4.77129 8.5931 4.62921ZM3.99143 7.65879C3.90435 7.74129 3.78518 7.79171 3.66602 7.79171C3.60643 7.79171 3.54685 7.77796 3.49185 7.75504C3.43227 7.73212 3.38643 7.70004 3.3406 7.65879C3.2581 7.57171 3.20768 7.45254 3.20768 7.33337C3.20768 7.27379 3.22143 7.21421 3.24435 7.15921C3.26727 7.10421 3.29935 7.05379 3.3406 7.00796C3.38643 6.96671 3.43227 6.93462 3.49185 6.91171C3.66143 6.83837 3.8631 6.87962 3.99143 7.00796C4.03268 7.05379 4.06477 7.10421 4.08768 7.15921C4.1106 7.21421 4.12435 7.27379 4.12435 7.33337C4.12435 7.45254 4.07393 7.57171 3.99143 7.65879ZM5.92102 7.50754C5.8981 7.56254 5.86602 7.61296 5.82477 7.65879C5.73768 7.74129 5.61852 7.79171 5.49935 7.79171C5.3756 7.79171 5.26102 7.74129 5.17393 7.65879C5.13268 7.61296 5.1006 7.56254 5.07768 7.50754C5.05477 7.45254 5.04102 7.39296 5.04102 7.33337C5.04102 7.20962 5.09143 7.09504 5.17393 7.00796C5.34352 6.83837 5.6506 6.83837 5.82477 7.00796C5.90727 7.09504 5.95768 7.20962 5.95768 7.33337C5.95768 7.39296 5.94393 7.45254 5.92102 7.50754ZM7.6581 7.65879C7.57102 7.74129 7.45185 7.79171 7.33268 7.79171C7.21352 7.79171 7.09435 7.74129 7.00727 7.65879C6.92477 7.57171 6.87435 7.45712 6.87435 7.33337C6.87435 7.20962 6.92477 7.09504 7.00727 7.00796C7.18143 6.83837 7.48852 6.83837 7.6581 7.00796C7.67643 7.03087 7.69477 7.05379 7.7131 7.08129C7.73143 7.10421 7.74518 7.13171 7.75435 7.15921C7.7681 7.18671 7.77727 7.21421 7.78185 7.24171C7.78643 7.27379 7.79102 7.30587 7.79102 7.33337C7.79102 7.45254 7.7406 7.57171 7.6581 7.65879Z" fill="#323232"/>
</svg>
