<svg width="20" height="20" viewBox="0 0 20 20" fill="none" xmlns="http://www.w3.org/2000/svg">
<path d="M15.625 6.66663V8.41663C15.2583 8.36663 14.8417 8.34163 14.375 8.33329V6.66663C14.375 4.04163 13.6333 2.29163 10 2.29163C6.36667 2.29163 5.625 4.04163 5.625 6.66663V8.33329C5.15833 8.34163 4.74167 8.36663 4.375 8.41663V6.66663C4.375 4.24996 4.95833 1.04163 10 1.04163C15.0417 1.04163 15.625 4.24996 15.625 6.66663Z" fill="#9FEDC2"/>
<path d="M15.6243 8.41671C15.2577 8.36671 14.841 8.34171 14.3743 8.33337H5.62435C5.15768 8.34171 4.74102 8.36671 4.37435 8.41671C2.24935 8.67504 1.66602 9.71671 1.66602 12.5V14.1667C1.66602 17.5 2.49935 18.3334 5.83268 18.3334H14.166C17.4993 18.3334 18.3327 17.5 18.3327 14.1667V12.5C18.3327 9.71671 17.7493 8.67504 15.6243 8.41671ZM7.25768 13.925C7.09935 14.075 6.88268 14.1667 6.66602 14.1667C6.55768 14.1667 6.44935 14.1417 6.34935 14.1C6.24102 14.0584 6.15768 14 6.07435 13.925C5.92435 13.7667 5.83268 13.55 5.83268 13.3334C5.83268 13.225 5.85768 13.1167 5.89935 13.0167C5.94102 12.9167 5.99935 12.825 6.07435 12.7417C6.15768 12.6667 6.24102 12.6084 6.34935 12.5667C6.65768 12.4334 7.02435 12.5084 7.25768 12.7417C7.33268 12.825 7.39102 12.9167 7.43268 13.0167C7.47435 13.1167 7.49935 13.225 7.49935 13.3334C7.49935 13.55 7.40768 13.7667 7.25768 13.925ZM10.766 13.65C10.7243 13.75 10.666 13.8417 10.591 13.925C10.4327 14.075 10.216 14.1667 9.99935 14.1667C9.77435 14.1667 9.56602 14.075 9.40768 13.925C9.33268 13.8417 9.27435 13.75 9.23268 13.65C9.19102 13.55 9.16602 13.4417 9.16602 13.3334C9.16602 13.1084 9.25768 12.9 9.40768 12.7417C9.71602 12.4334 10.2743 12.4334 10.591 12.7417C10.741 12.9 10.8327 13.1084 10.8327 13.3334C10.8327 13.4417 10.8077 13.55 10.766 13.65ZM13.9243 13.925C13.766 14.075 13.5493 14.1667 13.3327 14.1667C13.116 14.1667 12.8993 14.075 12.741 13.925C12.591 13.7667 12.4993 13.5584 12.4993 13.3334C12.4993 13.1084 12.591 12.9 12.741 12.7417C13.0577 12.4334 13.616 12.4334 13.9243 12.7417C13.9577 12.7834 13.991 12.825 14.0243 12.875C14.0577 12.9167 14.0827 12.9667 14.0993 13.0167C14.1243 13.0667 14.141 13.1167 14.1493 13.1667C14.1577 13.225 14.166 13.2834 14.166 13.3334C14.166 13.55 14.0743 13.7667 13.9243 13.925Z" fill="#9FEDC2"/>
</svg>
