<svg width="20" height="20" viewBox="0 0 20 20" fill="none" xmlns="http://www.w3.org/2000/svg">
<path d="M13.5423 18.75C14.3477 18.75 15.0007 18.0971 15.0007 17.2917C15.0007 16.4863 14.3477 15.8334 13.5423 15.8334C12.7369 15.8334 12.084 16.4863 12.084 17.2917C12.084 18.0971 12.7369 18.75 13.5423 18.75Z" fill="#15BE77"/>
<path d="M6.87435 18.75C7.67976 18.75 8.33268 18.0971 8.33268 17.2917C8.33268 16.4863 7.67976 15.8334 6.87435 15.8334C6.06893 15.8334 5.41602 16.4863 5.41602 17.2917C5.41602 18.0971 6.06893 18.75 6.87435 18.75Z" fill="#15BE77"/>
<path d="M4.03268 3.28329L3.86602 5.32496C3.83268 5.71663 4.14102 6.04163 4.53268 6.04163H17.291C17.641 6.04163 17.9327 5.77496 17.9577 5.42496C18.066 3.94996 16.941 2.74996 15.466 2.74996H5.22435C5.14102 2.38329 4.97435 2.03329 4.71602 1.74163C4.29935 1.29996 3.71602 1.04163 3.11602 1.04163H1.66602C1.32435 1.04163 1.04102 1.32496 1.04102 1.66663C1.04102 2.00829 1.32435 2.29163 1.66602 2.29163H3.11602C3.37435 2.29163 3.61602 2.39996 3.79102 2.58329C3.96602 2.77496 4.04935 3.02496 4.03268 3.28329Z" fill="#15BE77"/>
<path d="M17.0924 7.29163H4.30903C3.95903 7.29163 3.6757 7.55829 3.64236 7.89996L3.34236 11.525C3.2257 12.95 4.34236 14.1666 5.76736 14.1666H15.034C16.284 14.1666 17.384 13.1416 17.4757 11.8916L17.7507 7.99996C17.784 7.61663 17.484 7.29163 17.0924 7.29163Z" fill="#15BE77"/>
</svg>
