<svg width="20" height="20" viewBox="0 0 20 20" fill="none" xmlns="http://www.w3.org/2000/svg">
<path d="M4.78313 13.3333C4.8748 12.925 4.70813 12.3416 4.41647 12.05L2.39147 10.025C1.75813 9.39162 1.50813 8.71663 1.69147 8.13329C1.88313 7.54996 2.4748 7.14996 3.35813 6.99996L5.95813 6.56663C6.33313 6.49996 6.79147 6.16663 6.96647 5.82496L8.3998 2.94996C8.81647 2.12496 9.38313 1.66663 9.9998 1.66663C10.6165 1.66663 11.1831 2.12496 11.5998 2.94996L13.0331 5.82496C13.1415 6.04163 13.3665 6.24996 13.6081 6.39163L4.63313 15.3666C4.51647 15.4833 4.31647 15.375 4.3498 15.2083L4.78313 13.3333Z" fill="#15BE77"/>
<path d="M15.584 12.0501C15.284 12.3501 15.1173 12.9251 15.2173 13.3334L15.7923 15.8417C16.034 16.8834 15.884 17.6667 15.3673 18.0417C15.159 18.1917 14.909 18.2667 14.6173 18.2667C14.1923 18.2667 13.6923 18.1084 13.1423 17.7834L10.7007 16.3334C10.3173 16.1084 9.68398 16.1084 9.30065 16.3334L6.85898 17.7834C5.93398 18.3251 5.14232 18.4167 4.63398 18.0417C4.44232 17.9001 4.30065 17.7084 4.20898 17.4584L14.3423 7.32508C14.7256 6.94174 15.2673 6.76674 15.7923 6.85841L16.634 7.00008C17.5173 7.15008 18.109 7.55008 18.3007 8.13341C18.484 8.71674 18.234 9.39174 17.6007 10.0251L15.584 12.0501Z" fill="#15BE77"/>
<path d="M15.2091 13.3333C15.1174 12.925 15.2841 12.3416 15.5757 12.05L17.6007 10.025C18.2341 9.39162 18.4841 8.71663 18.3007 8.13329C18.1091 7.54996 17.5174 7.14996 16.6341 6.99996L14.0341 6.56663C13.6591 6.49996 13.2007 6.16663 13.0257 5.82496L11.5924 2.94996C11.1757 2.12496 10.6091 1.66663 9.99239 1.66663C9.37572 1.66663 8.80905 2.12496 8.39239 2.94996L6.95905 5.82496C6.85072 6.04163 6.62572 6.24996 6.38405 6.39163L15.3591 15.3666C15.4757 15.4833 15.6757 15.375 15.6424 15.2083L15.2091 13.3333Z" fill="#15BE77"/>
<path d="M8.42788 12.5C7.42788 12.5 8.42788 10 8.92788 10C9.32786 10 10.4279 8.66669 10.9279 8L11.4277 8.5C11.9277 9 12.9277 10.2 12.9277 11C12.9277 12 11.9277 12.5 11.4277 13C10.9277 13.5 9.42788 12.5 8.42788 12.5Z" fill="#15BE77"/>
<path d="M4.4082 12.0501C4.7082 12.3501 4.87487 12.9251 4.77487 13.3334L4.19987 15.8417C3.9582 16.8834 4.1082 17.6667 4.62487 18.0417C4.8332 18.1917 5.0832 18.2667 5.37487 18.2667C5.79987 18.2667 6.29987 18.1084 6.84987 17.7834L9.29154 16.3334C9.67487 16.1084 10.3082 16.1084 10.6915 16.3334L13.1332 17.7834C14.0582 18.3251 14.8499 18.4167 15.3582 18.0417C15.5499 17.9001 15.6915 17.7084 15.7832 17.4584L5.64987 7.32508C5.26654 6.94174 4.72487 6.76674 4.19987 6.85841L3.3582 7.00008C2.47487 7.15008 1.8832 7.55008 1.69154 8.13341C1.5082 8.71674 1.7582 9.39174 2.39154 10.0251L4.4082 12.0501Z" fill="#15BE77"/>
</svg>
