<svg width="267" height="72" viewBox="0 0 267 72" fill="none" xmlns="http://www.w3.org/2000/svg">
<path d="M16.992 63.9149C12.6012 63.4963 7.42248 62.7481 0.231786 62.9992C0.231786 62.9992 -0.0501298 63.009 0.00785979 62.6496C4.66744 28.3199 5.35387 23.7213 5.35138 23.65C5.75965 15.1296 1.17415 17.2197 2.09634 15.3291C3.28297 12.9289 8.32956 9.89353 12.4889 9.74828C17.9876 9.55626 22.4731 12.6876 21.3473 20.8756C20.6373 25.7732 18.6336 40.2048 17.2797 50.0572C17.2595 50.2046 17.2714 50.3547 17.3145 50.497C17.3577 50.6393 17.4311 50.7704 17.5296 50.8809C17.6281 50.9915 17.7493 51.0789 17.8846 51.137C18.02 51.1951 18.1662 51.2225 18.3131 51.2173C33.1174 50.7003 31.9353 47.1675 33.0277 48.13C33.8986 48.8143 34.3739 50.299 34.3483 51.5863C34.1284 61.4581 24.857 64.7841 16.992 63.9149Z" fill="url(#paint0_linear_433_1109)"/>
<path d="M76.4569 56.8348C75.4086 59.1586 71.2056 62.0933 67.2579 62.2312C63.6569 62.3569 60.8857 60.7693 59.6173 57.8797C59.4942 57.5982 59.3034 57.3524 59.0624 57.1648C58.8213 56.9771 58.5376 56.8537 58.2374 56.8058C57.9372 56.7578 57.6299 56.7869 57.3438 56.8903C57.0576 56.9937 56.8017 57.1682 56.5995 57.3978C53.8256 60.5753 50.4171 62.7476 46.5997 62.8809C37.7171 63.1911 34.1982 53.3785 35.4855 43.7554C36.8359 33.9156 43.1286 24.1177 52.3637 23.7952C55.4097 23.6888 57.7475 24.7003 59.4674 26.4403C59.704 26.6848 60.0031 26.8576 60.3312 26.9395C60.6594 27.0213 61.0034 27.0089 61.3248 26.9036C61.6462 26.7983 61.9322 26.6044 62.1505 26.3435C62.3689 26.0827 62.5111 25.7652 62.5611 25.4269C62.5735 25.3412 62.58 25.2968 62.58 25.2968C62.5973 25.1828 62.6517 25.0778 62.7346 24.9987C62.8369 24.9047 62.9695 24.8516 63.1077 24.8496L77.0875 24.3614C77.1252 24.3687 77.1611 24.3837 77.193 24.4054C77.2249 24.4271 77.2521 24.4552 77.2731 24.4878C77.294 24.5205 77.3081 24.5571 77.3147 24.5954C77.3213 24.6338 77.3201 24.6731 77.3113 24.7109C77.3113 24.7109 74.5665 41.104 73.8925 46.0595C72.315 57.4797 77.4471 54.8704 76.4569 56.8348ZM60.5823 42.879C61.3119 37.4927 60.1024 33.1745 56.648 33.2951C53.1937 33.4157 50.7375 37.8619 50.0079 43.2483C49.2784 48.6347 50.4854 52.8811 53.9397 52.7605C57.3941 52.6399 59.853 48.2653 60.5823 42.879Z" fill="url(#paint1_linear_433_1109)"/>
<path d="M118.962 41.121C117.611 50.9606 111.389 60.7562 102.154 61.0787C98.1049 61.2201 95.307 59.386 93.5488 56.4909C93.4753 56.3729 93.3678 56.2807 93.2408 56.2267C93.1139 56.1728 92.9736 56.1597 92.8391 56.1892C92.7046 56.2188 92.5824 56.2896 92.4891 56.3919C92.3958 56.4943 92.3359 56.6233 92.3175 56.7615C92.0644 58.6357 91.9403 59.6484 91.9403 59.6484C91.9231 59.7625 91.8687 59.8674 91.7857 59.9465C91.6835 60.0406 91.5509 60.0936 91.4127 60.0956L77.997 60.5641C77.9592 60.5568 77.9233 60.5418 77.8914 60.5201C77.8595 60.4984 77.8323 60.4704 77.8114 60.4377C77.7904 60.405 77.7762 60.3684 77.7696 60.3301C77.763 60.2917 77.7642 60.2524 77.7729 60.2146L84.8078 10.4896C84.8671 10.0711 85.0697 9.68702 85.3804 9.40466C85.691 9.12231 86.0899 8.95963 86.5073 8.94506L98.0027 8.54363C98.0886 8.54051 98.1742 8.55618 98.2537 8.58957C98.3331 8.62296 98.4045 8.67329 98.4631 8.73713C98.5216 8.80097 98.5658 8.87683 98.5928 8.95953C98.6198 9.04222 98.6289 9.12983 98.6194 9.21636C98.335 11.8128 97.3047 21.0684 96.4547 26.7977C96.4278 26.9792 96.4599 27.1646 96.5462 27.3262C96.6324 27.4877 96.7681 27.6165 96.9328 27.6932C97.0976 27.7699 97.2824 27.7904 97.4595 27.7515C97.6366 27.7127 97.7964 27.6166 97.9148 27.4777C100.647 24.2986 104.09 22.1267 107.918 21.993C116.801 21.6828 120.32 31.4952 118.962 41.121ZM104.51 41.6257C105.239 36.2393 104.032 31.9928 100.578 32.1134C97.1236 32.2341 94.6649 36.6086 93.9353 41.9949C93.206 47.3813 94.4156 51.6994 97.8699 51.5788C101.324 51.4582 103.78 47.012 104.51 41.6257Z" fill="url(#paint2_linear_433_1109)"/>
<path d="M160.618 39.6664C159.267 49.506 153.045 59.3016 143.81 59.6241C139.761 59.7655 136.963 57.9314 135.205 55.0364C135.131 54.9185 135.024 54.8262 134.897 54.7722C134.77 54.7182 134.63 54.7052 134.495 54.7347C134.361 54.7643 134.239 54.835 134.145 54.9374C134.052 55.0398 133.992 55.1689 133.974 55.307C133.72 57.1811 133.596 58.1938 133.596 58.1938C133.579 58.3079 133.525 58.4128 133.442 58.492C133.34 58.586 133.207 58.639 133.069 58.6411L119.653 59.1096C119.615 59.1023 119.579 59.0873 119.548 59.0656C119.516 59.0438 119.488 59.0158 119.468 58.9831C119.447 58.9505 119.432 58.9139 119.426 58.8755C119.419 58.8372 119.42 58.7979 119.429 58.76L126.464 9.03509C126.523 8.6165 126.726 8.23244 127.036 7.95008C127.347 7.66771 127.746 7.50502 128.163 7.49044L139.659 7.08901C139.745 7.08589 139.83 7.10156 139.91 7.13495C139.989 7.16834 140.061 7.21867 140.119 7.28252C140.178 7.34636 140.222 7.42221 140.249 7.50491C140.276 7.58761 140.285 7.67521 140.276 7.76175C139.991 10.3583 138.961 19.6149 138.111 25.3441C138.084 25.5255 138.116 25.7109 138.202 25.8724C138.288 26.0339 138.424 26.1627 138.589 26.2394C138.753 26.3161 138.938 26.3365 139.115 26.2977C139.292 26.2588 139.452 26.1627 139.57 26.0239C142.303 22.8443 145.745 20.6721 149.574 20.5384C158.457 20.2282 161.976 30.0406 160.618 39.6664ZM146.166 40.1711C146.895 34.7847 145.688 30.5382 142.234 30.6588C138.78 30.7794 136.321 35.154 135.591 40.5403C134.862 45.9267 136.072 50.2448 139.526 50.1242C142.98 50.0035 145.437 45.5574 146.166 40.1711Z" fill="url(#paint3_linear_433_1109)"/>
<path d="M203.206 52.4086C202.158 54.7324 197.955 57.6671 194.007 57.805C190.397 57.931 187.621 56.335 186.357 53.4314C186.235 53.152 186.046 52.908 185.807 52.7218C185.568 52.5355 185.287 52.413 184.989 52.3654C184.691 52.3179 184.386 52.3468 184.102 52.4495C183.819 52.5522 183.565 52.7255 183.365 52.9534C180.588 56.1408 177.174 58.3212 173.349 58.4547C164.466 58.7649 160.947 48.9523 162.235 39.3292C163.585 29.4894 169.878 19.6915 179.113 19.369C182.179 19.2619 184.527 20.287 186.25 22.0477C186.483 22.2895 186.778 22.4606 187.103 22.5416C187.427 22.6227 187.767 22.6105 188.084 22.5065C188.401 22.4025 188.684 22.2107 188.899 21.9529C189.115 21.695 189.255 21.3813 189.304 21.047C189.32 20.931 189.329 20.8706 189.329 20.8706C189.347 20.7565 189.401 20.6516 189.484 20.5725C189.586 20.4784 189.719 20.4254 189.857 20.4233L203.837 19.9351C203.875 19.9425 203.911 19.9574 203.942 19.9792C203.974 20.0009 204.002 20.0289 204.022 20.0616C204.043 20.0943 204.058 20.1309 204.064 20.1692C204.071 20.2076 204.069 20.2469 204.061 20.2847C204.061 20.2847 201.316 36.6777 200.642 41.6333C199.064 53.0535 204.196 50.4442 203.206 52.4086ZM187.332 38.4528C188.061 33.0664 186.852 28.7483 183.397 28.8689C179.943 28.9895 177.487 33.4357 176.757 38.8221C176.028 44.2085 177.235 48.4549 180.689 48.3343C184.143 48.2137 186.602 43.8391 187.332 38.4528Z" fill="url(#paint4_linear_433_1109)"/>
<path d="M219.33 71.5022C209.037 71.8616 205.268 64.9883 204.821 62.2875C204.135 58.809 204.958 58.1371 205.668 58.2552C207.37 58.4815 208.617 63.8705 216.513 63.5948C222.153 63.3978 225.966 59.4048 226.733 55.0893L226.743 55.0224C227.033 53.1522 224.871 51.9066 223.444 53.1286C220.625 55.5426 217.637 56.5506 215.211 56.6353C209.995 56.8174 206.167 52.305 207.186 45.1216C207.575 42.1058 207.916 39.7353 208.645 34.3489C210.223 22.9285 204.527 25.5577 205.446 23.5955C206.565 21.2693 210.698 18.3372 214.645 18.1994C220.356 18 224.448 22.0029 223.555 28.7532C223.216 31.1953 222.371 37.3004 221.626 42.2585C220.677 49.4395 227.639 46.6946 228.969 38.2853C229.813 32.0694 230.7 26.3684 231.273 22.8088C231.445 21.7423 231.977 20.7694 232.778 20.0558C233.579 19.3422 234.599 18.9319 235.666 18.8949L243.915 18.6068C244.112 18.5999 244.307 18.636 244.488 18.7127C244.669 18.7895 244.832 18.905 244.965 19.0514C245.098 19.1978 245.198 19.3715 245.259 19.5607C245.319 19.75 245.338 19.9502 245.315 20.1476C244.711 25.2842 242.79 41.5148 241.713 49.4913C240.381 61.9037 232.372 71.0467 219.33 71.5022Z" fill="url(#paint5_linear_433_1109)"/>
<path d="M252.486 55.5482C248.679 55.6811 246.032 52.6285 246.599 48.6774C247.099 44.8 250.585 41.5332 254.392 41.4003C258.199 41.2673 260.916 44.3175 260.346 48.1973C259.778 52.1484 256.293 55.4152 252.486 55.5482ZM254.571 38.4634C249.566 38.6382 250.768 22.5134 251.475 16.4845C252.773 5.14541 247.92 7.67374 248.84 5.71164C249.891 3.4591 254.091 0.45329 258.039 0.315432C263.749 0.116021 267.278 4.13851 266.316 10.9626C265.082 20.0835 260.282 38.264 254.571 38.4634Z" fill="url(#paint6_linear_433_1109)"/>
<defs>
<linearGradient id="paint0_linear_433_1109" x1="-3.77873e-07" y1="-4.06403" x2="235.751" y2="132.624" gradientUnits="userSpaceOnUse">
<stop stop-color="#53E88B"/>
<stop offset="1" stop-color="#15BE77"/>
</linearGradient>
<linearGradient id="paint1_linear_433_1109" x1="-3.77873e-07" y1="-4.06403" x2="235.751" y2="132.624" gradientUnits="userSpaceOnUse">
<stop stop-color="#53E88B"/>
<stop offset="1" stop-color="#15BE77"/>
</linearGradient>
<linearGradient id="paint2_linear_433_1109" x1="-3.77873e-07" y1="-4.06403" x2="235.751" y2="132.624" gradientUnits="userSpaceOnUse">
<stop stop-color="#53E88B"/>
<stop offset="1" stop-color="#15BE77"/>
</linearGradient>
<linearGradient id="paint3_linear_433_1109" x1="-3.77873e-07" y1="-4.06403" x2="235.751" y2="132.624" gradientUnits="userSpaceOnUse">
<stop stop-color="#53E88B"/>
<stop offset="1" stop-color="#15BE77"/>
</linearGradient>
<linearGradient id="paint4_linear_433_1109" x1="-3.77873e-07" y1="-4.06403" x2="235.751" y2="132.624" gradientUnits="userSpaceOnUse">
<stop stop-color="#53E88B"/>
<stop offset="1" stop-color="#15BE77"/>
</linearGradient>
<linearGradient id="paint5_linear_433_1109" x1="-3.77873e-07" y1="-4.06403" x2="235.751" y2="132.624" gradientUnits="userSpaceOnUse">
<stop stop-color="#53E88B"/>
<stop offset="1" stop-color="#15BE77"/>
</linearGradient>
<linearGradient id="paint6_linear_433_1109" x1="-3.77873e-07" y1="-4.06403" x2="235.751" y2="132.624" gradientUnits="userSpaceOnUse">
<stop stop-color="#53E88B"/>
<stop offset="1" stop-color="#15BE77"/>
</linearGradient>
</defs>
</svg>
