<svg width="177" height="47" viewBox="0 0 177 47" fill="none" xmlns="http://www.w3.org/2000/svg">
<path d="M11.2866 41.9831C8.37014 41.7068 4.93025 41.213 0.15396 41.3787C0.15396 41.3787 -0.0332978 41.3852 0.00522072 41.148C3.10026 18.4889 3.55621 15.4536 3.55455 15.4065C3.82574 9.78268 0.779908 11.1623 1.39245 9.91435C2.18065 8.33012 5.53275 6.32664 8.29551 6.23077C11.9479 6.10403 14.9274 8.17083 14.1796 13.5753C13.708 16.8079 12.377 26.3334 11.4777 32.8364C11.4643 32.9337 11.4722 33.0328 11.5009 33.1267C11.5295 33.2206 11.5783 33.3071 11.6437 33.3801C11.7091 33.4531 11.7896 33.5108 11.8795 33.5491C11.9694 33.5875 12.0666 33.6056 12.1641 33.6021C21.9976 33.2609 21.2124 30.9291 21.938 31.5644C22.5165 32.0161 22.8322 32.996 22.8152 33.8457C22.6691 40.3615 16.5108 42.5568 11.2866 41.9831Z" fill="white"/>
<path d="M50.7851 37.31C50.0887 38.8438 47.297 40.7808 44.6748 40.8718C42.2829 40.9548 40.4422 39.9069 39.5997 37.9996C39.5179 37.8138 39.3912 37.6516 39.2311 37.5277C39.0709 37.4039 38.8825 37.3224 38.6831 37.2908C38.4837 37.2591 38.2796 37.2783 38.0895 37.3466C37.8995 37.4148 37.7295 37.53 37.5952 37.6815C35.7526 39.7788 33.4886 41.2127 30.953 41.3007C25.0529 41.5054 22.7155 35.0286 23.5706 28.677C24.4676 22.1822 28.6474 15.7152 34.7816 15.5024C36.8049 15.4321 38.3577 16.0997 39.5001 17.2482C39.6572 17.4096 39.856 17.5237 40.0739 17.5777C40.2919 17.6317 40.5204 17.6235 40.7339 17.554C40.9473 17.4846 41.1373 17.3565 41.2823 17.1844C41.4274 17.0122 41.5218 16.8027 41.5551 16.5794C41.5633 16.5228 41.5676 16.4935 41.5676 16.4935C41.5791 16.4182 41.6152 16.3489 41.6703 16.2967C41.7382 16.2346 41.8263 16.1996 41.9181 16.1983L51.2039 15.876C51.229 15.8809 51.2528 15.8908 51.274 15.9051C51.2952 15.9194 51.3133 15.938 51.3272 15.9595C51.3411 15.9811 51.3505 16.0052 51.3549 16.0305C51.3592 16.0559 51.3585 16.0818 51.3526 16.1068C51.3526 16.1068 49.5294 26.9269 49.0817 30.1978C48.0339 37.7356 51.4428 36.0134 50.7851 37.31ZM40.2407 28.0985C40.7253 24.5433 39.9219 21.6931 37.6274 21.7727C35.3329 21.8523 33.7014 24.787 33.2168 28.3422C32.7322 31.8975 33.534 34.7004 35.8285 34.6207C38.123 34.5411 39.7563 31.6537 40.2407 28.0985Z" fill="white"/>
<path d="M79.0181 26.9381C78.1211 33.4327 73.9883 39.8983 67.854 40.1111C65.1643 40.2045 63.3059 38.9938 62.138 37.0829C62.0892 37.0051 62.0178 36.9442 61.9335 36.9086C61.8492 36.873 61.756 36.8643 61.6667 36.8838C61.5773 36.9033 61.4962 36.95 61.4342 37.0176C61.3722 37.0852 61.3324 37.1704 61.3202 37.2615C61.152 38.4986 61.0696 39.167 61.0696 39.167C61.0582 39.2423 61.022 39.3116 60.967 39.3638C60.8991 39.4259 60.811 39.4609 60.7192 39.4622L51.8081 39.7715C51.783 39.7666 51.7591 39.7567 51.7379 39.7424C51.7167 39.7281 51.6987 39.7096 51.6847 39.688C51.6708 39.6664 51.6614 39.6423 51.657 39.617C51.6527 39.5917 51.6534 39.5657 51.6592 39.5407L56.332 6.7201C56.3714 6.44382 56.506 6.19033 56.7123 6.00397C56.9187 5.8176 57.1836 5.71022 57.4609 5.70061L65.0965 5.43564C65.1536 5.43358 65.2104 5.44393 65.2632 5.46597C65.3159 5.48801 65.3634 5.52123 65.4023 5.56337C65.4411 5.6055 65.4705 5.65557 65.4884 5.71016C65.5064 5.76474 65.5124 5.82256 65.5061 5.87968C65.3172 7.59344 64.6329 13.7026 64.0682 17.4841C64.0504 17.6039 64.0717 17.7263 64.129 17.8329C64.1863 17.9395 64.2764 18.0246 64.3858 18.0752C64.4953 18.1259 64.618 18.1394 64.7357 18.1137C64.8533 18.0881 64.9595 18.0246 65.0381 17.933C66.8531 15.8346 69.1396 14.4011 71.6825 14.3128C77.5827 14.1081 79.9201 20.5847 79.0181 26.9381ZM69.4188 27.2712C69.9033 23.716 69.1015 20.9131 66.807 20.9927C64.5126 21.0724 62.8794 23.9598 62.3948 27.515C61.9104 31.0702 62.7138 33.9204 65.0082 33.8407C67.3027 33.7611 68.9342 30.8265 69.4188 27.2712Z" fill="white"/>
<path d="M106.687 25.978C105.79 32.4726 101.658 38.9381 95.5233 39.151C92.8336 39.2443 90.9753 38.0337 89.8074 36.1229C89.7586 36.0451 89.6872 35.9842 89.6028 35.9486C89.5185 35.9129 89.4253 35.9043 89.336 35.9238C89.2466 35.9433 89.1655 35.99 89.1035 36.0576C89.0415 36.1252 89.0017 36.2104 88.9895 36.3015C88.8213 37.5385 88.739 38.207 88.739 38.207C88.7275 38.2823 88.6914 38.3515 88.6363 38.4037C88.5684 38.4658 88.4803 38.5008 88.3885 38.5022L79.4774 38.8114C79.4523 38.8066 79.4284 38.7967 79.4072 38.7823C79.3861 38.768 79.368 38.7495 79.3541 38.7279C79.3402 38.7064 79.3307 38.6822 79.3264 38.6569C79.322 38.6316 79.3227 38.6057 79.3286 38.5807L84.0013 5.76003C84.0407 5.48374 84.1753 5.23025 84.3816 5.04387C84.588 4.8575 84.8529 4.75011 85.1302 4.74049L92.7658 4.47553C92.8228 4.47347 92.8797 4.48382 92.9325 4.50586C92.9852 4.5279 93.0327 4.56112 93.0715 4.60326C93.1104 4.64539 93.1398 4.69546 93.1577 4.75004C93.1757 4.80463 93.1817 4.86245 93.1754 4.91957C92.9865 6.63343 92.302 12.7432 91.7374 16.5247C91.7196 16.6444 91.7409 16.7668 91.7981 16.8734C91.8554 16.98 91.9455 17.065 92.0549 17.1156C92.1643 17.1662 92.287 17.1797 92.4046 17.1541C92.5222 17.1284 92.6283 17.065 92.707 16.9734C94.522 14.8747 96.8087 13.441 99.3518 13.3527C105.252 13.148 107.589 19.6246 106.687 25.978ZM97.0881 26.3111C97.5725 22.7559 96.7708 19.953 94.4763 20.0326C92.1818 20.1123 90.5487 22.9996 90.0641 26.5549C89.5797 30.1101 90.3831 32.9602 92.6775 32.8806C94.972 32.801 96.6035 29.8664 97.0881 26.3111Z" fill="white"/>
<path d="M134.976 34.3885C134.28 35.9223 131.488 37.8593 128.866 37.9503C126.468 38.0335 124.624 36.98 123.784 35.0635C123.703 34.8791 123.578 34.7181 123.419 34.5951C123.26 34.4722 123.073 34.3913 122.875 34.36C122.678 34.3286 122.475 34.3476 122.287 34.4154C122.098 34.4833 121.93 34.5976 121.797 34.7481C119.952 36.8519 117.684 38.291 115.144 38.3792C109.244 38.5839 106.906 32.1071 107.761 25.7555C108.658 19.2607 112.838 12.7937 118.973 12.5809C121.009 12.5102 122.568 13.1868 123.713 14.3489C123.868 14.5085 124.064 14.6214 124.279 14.6749C124.495 14.7284 124.72 14.7204 124.931 14.6517C125.142 14.5831 125.33 14.4565 125.473 14.2863C125.616 14.1161 125.709 13.9091 125.741 13.6884C125.753 13.6118 125.759 13.572 125.759 13.572C125.77 13.4967 125.806 13.4274 125.861 13.3752C125.929 13.3131 126.017 13.2781 126.109 13.2768L135.395 12.9545C135.42 12.9594 135.444 12.9693 135.465 12.9836C135.486 12.9979 135.504 13.0165 135.518 13.038C135.532 13.0596 135.541 13.0837 135.546 13.109C135.55 13.1344 135.549 13.1603 135.544 13.1853C135.544 13.1853 133.72 24.0054 133.273 27.2763C132.225 34.8141 135.634 33.0919 134.976 34.3885ZM124.432 25.177C124.916 21.6218 124.113 18.7716 121.818 18.8512C119.524 18.9308 117.892 21.8655 117.408 25.4207C116.923 28.976 117.725 31.7789 120.019 31.6992C122.314 31.6196 123.947 28.7322 124.432 25.177Z" fill="white"/>
<path d="M145.686 46.991C138.849 47.2283 136.346 42.6916 136.049 40.909C135.593 38.613 136.14 38.1695 136.611 38.2475C137.742 38.3968 138.57 41.9538 143.815 41.7718C147.561 41.6418 150.094 39.0062 150.603 36.1578L150.61 36.1137C150.802 34.8792 149.366 34.0571 148.418 34.8637C146.546 36.457 144.561 37.1223 142.95 37.1782C139.485 37.2985 136.942 34.3201 137.62 29.5787C137.878 27.5881 138.104 26.0235 138.589 22.4682C139.637 14.9303 135.853 16.6657 136.464 15.3706C137.207 13.8351 139.952 11.8999 142.574 11.8089C146.367 11.6772 149.085 14.3193 148.492 18.7748C148.267 20.3867 147.706 24.4164 147.211 27.6889C146.581 32.4287 151.205 30.6169 152.089 25.0664C152.649 20.9637 153.238 17.2008 153.619 14.8513C153.733 14.1474 154.086 13.5052 154.618 13.0342C155.15 12.5632 155.828 12.2924 156.537 12.2679L162.016 12.0778C162.147 12.0732 162.276 12.097 162.397 12.1477C162.517 12.1983 162.625 12.2746 162.713 12.3712C162.802 12.4678 162.868 12.5825 162.908 12.7074C162.949 12.8323 162.961 12.9645 162.946 13.0948C162.545 16.4851 161.268 27.1981 160.553 32.4629C159.669 40.6556 154.349 46.6904 145.686 46.991Z" fill="white"/>
<path d="M167.709 36.4607C165.18 36.5485 163.422 34.5336 163.799 31.9257C164.131 29.3665 166.446 27.2102 168.975 27.1225C171.504 27.0347 173.309 29.048 172.93 31.6088C172.553 34.2167 170.238 36.373 167.709 36.4607ZM169.094 25.184C165.77 25.2994 166.568 14.6563 167.037 10.677C167.9 3.19267 164.676 4.86148 165.287 3.56641C165.985 2.07963 168.775 0.095667 171.397 0.00467498C175.19 -0.126945 177.534 2.52808 176.895 7.0323C176.076 13.0525 172.887 25.0524 169.094 25.184Z" fill="white"/>
</svg>
