<svg width="28" height="28" viewBox="0 0 28 28" fill="none" xmlns="http://www.w3.org/2000/svg">
<path d="M22.0958 6.32333L16.0641 2.83499C14.9091 2.16999 13.1008 2.16999 11.9458 2.83499L5.85578 6.34666C3.44078 7.97999 3.30078 8.22499 3.30078 10.8267V17.1617C3.30078 19.7633 3.44078 20.02 5.90245 21.6767L11.9341 25.165C12.5174 25.5033 13.2641 25.6667 13.9991 25.6667C14.7341 25.6667 15.4808 25.5033 16.0524 25.165L22.1424 21.6533C24.5574 20.02 24.6974 19.775 24.6974 17.1733V10.8267C24.6974 8.22499 24.5574 7.97999 22.0958 6.32333ZM13.9991 17.7917C11.9108 17.7917 10.2074 16.0883 10.2074 14C10.2074 11.9117 11.9108 10.2083 13.9991 10.2083C16.0874 10.2083 17.7908 11.9117 17.7908 14C17.7908 16.0883 16.0874 17.7917 13.9991 17.7917Z" fill="#A1F8CF"/>
</svg>
